<svg xmlns="http://www.w3.org/2000/svg" width="284.501" height="75.563" viewBox="0 0 284.501 75.563">
  <path id="Caminho_1" data-name="Caminho 1" d="M23.086-25.511A15.024,15.024,0,0,0,25.9-16.539a19.345,19.345,0,0,0,7.615,6.208,24.679,24.679,0,0,0,10.718,2.28,34.824,34.824,0,0,0,13.434-2.328,76.844,76.844,0,0,0,9.652-4.753l5.432,7.76a69.125,69.125,0,0,1-12.416,5.82A47.61,47.61,0,0,1,44.135.97a36.325,36.325,0,0,1-16.1-3.492,28.451,28.451,0,0,1-11.3-9.506A23.3,23.3,0,0,1,12.61-25.511a23.235,23.235,0,0,1,4.123-13.532,28.607,28.607,0,0,1,11.3-9.457,36.326,36.326,0,0,1,16.1-3.492,50.968,50.968,0,0,1,16.587,2.619A28.96,28.96,0,0,1,72.75-42.1L67.124-33.95a28.547,28.547,0,0,0-6.45-4.559,41.162,41.162,0,0,0-8.1-3.25,30.775,30.775,0,0,0-8.439-1.212,25.3,25.3,0,0,0-11.058,2.279,17.934,17.934,0,0,0-7.372,6.208A15.8,15.8,0,0,0,23.086-25.511Zm116.594,0a22.987,22.987,0,0,1-4.268,13.726,28.5,28.5,0,0,1-11.834,9.361A42.523,42.523,0,0,1,106.021.97a42.864,42.864,0,0,1-17.605-3.4,28.451,28.451,0,0,1-11.882-9.361,22.987,22.987,0,0,1-4.268-13.726,22.987,22.987,0,0,1,4.268-13.725A28.451,28.451,0,0,1,88.415-48.6a42.864,42.864,0,0,1,17.605-3.395A42.523,42.523,0,0,1,123.578-48.6a28.5,28.5,0,0,1,11.834,9.361A22.987,22.987,0,0,1,139.68-25.511Zm-10.185,0a13.235,13.235,0,0,0-2.958-9.069,20.626,20.626,0,0,0-8.487-6.111,31.517,31.517,0,0,0-12.028-2.183,31.989,31.989,0,0,0-12.028,2.183,20.172,20.172,0,0,0-8.536,6.111,13.775,13.775,0,0,0-3.007,9.069,13.633,13.633,0,0,0,3.007,8.972,20.535,20.535,0,0,0,8.536,6.16,31.374,31.374,0,0,0,12.028,2.231,30.912,30.912,0,0,0,12.028-2.231,21.011,21.011,0,0,0,8.487-6.16A13.093,13.093,0,0,0,129.495-25.511Zm77.115,0a22.987,22.987,0,0,1-4.268,13.726,28.5,28.5,0,0,1-11.834,9.361A42.523,42.523,0,0,1,172.951.97a42.864,42.864,0,0,1-17.605-3.4,28.451,28.451,0,0,1-11.883-9.361A22.987,22.987,0,0,1,139.2-25.511a22.987,22.987,0,0,1,4.268-13.725A28.451,28.451,0,0,1,155.346-48.6a42.864,42.864,0,0,1,17.605-3.395A42.523,42.523,0,0,1,190.508-48.6a28.5,28.5,0,0,1,11.834,9.361A22.987,22.987,0,0,1,206.61-25.511Zm-10.185,0a13.235,13.235,0,0,0-2.959-9.069,20.626,20.626,0,0,0-8.487-6.111,31.517,31.517,0,0,0-12.028-2.183,31.989,31.989,0,0,0-12.028,2.183,20.172,20.172,0,0,0-8.536,6.111,13.775,13.775,0,0,0-3.007,9.069,13.633,13.633,0,0,0,3.007,8.972,20.536,20.536,0,0,0,8.536,6.16,31.374,31.374,0,0,0,12.028,2.231,30.912,30.912,0,0,0,12.028-2.231,21.011,21.011,0,0,0,8.487-6.16A13.093,13.093,0,0,0,196.425-25.511Zm23.183-36.472a6.631,6.631,0,0,1-5.044-1.746,6.369,6.369,0,0,1-1.649-4.559,6.564,6.564,0,0,1,1.649-4.365,6.255,6.255,0,0,1,5.044-1.94,6.631,6.631,0,0,1,5.044,1.746,6.369,6.369,0,0,1,1.649,4.559,6.565,6.565,0,0,1-1.649,4.365A6.255,6.255,0,0,1,219.608-61.983ZM224.555,0h-9.991V-50.925h9.991Zm48.306-51.992q8.051,0,13.435,2.958a19.8,19.8,0,0,1,8.1,7.954,22.673,22.673,0,0,1,2.716,11.01V0H287.12V-28.421a12.734,12.734,0,0,0-2.231-7.469,14.993,14.993,0,0,0-6.014-5,19.215,19.215,0,0,0-8.342-1.795,19.525,19.525,0,0,0-7.712,1.5,20.989,20.989,0,0,0-6.111,3.88,18.652,18.652,0,0,0-3.977,5.092,11.379,11.379,0,0,0-1.407,5.238V0h-9.991V-50.925h9.991v9.409a34.782,34.782,0,0,1,9.021-7.324A24.472,24.472,0,0,1,272.861-51.992Z" transform="translate(-12.61 74.593)" fill="#127a73"/>
</svg>
